{"title":"Tale.of.Tales.2015.BRRip.480p.x264.AAC-VYTO [P2PDL]","uid":12316968,"size":505176918,"categoryP":"video","categoryS":"movies","magnet":"?xt=urn:btih:08307e0a6d4f1aa558f3186adb381405808a081e&amp;dn=Tale.of.Tales.2015.BRRip.480p.x264.AAC-VYTO+%5BP2PDL%5D&amp;tr=udp%3A%2F%2Ftracker.openbittorrent.com%3A80&amp;tr=udp%3A%2F%2Fopen.demonii.com%3A1337&amp;tr=udp%3A%2F%2Ftracker.coppersurfer.tk%3A6969&amp;tr=udp%3A%2F%2Fexodus.desync.com%3A6969","seeders":28,"leechers":18,"uploader":"ValidusVyto","files":7,"time":1441012653,"description":"____    ____ ____    ____ .___________.  ______   \n     /   /      /   / |           | /  __    \n    /   /      /   /  `---|  |----`|  |  |  | \n        /     _    _/       |  |     |  |  |  | \n       /        |  |         |  |     |  `--'  | \n    __/         |__|         |__|      ______/  \n                                                  \nPresenting Small Encodes with quality for years!\n                                                                                                   \n                                                                                                   \n\nTale.of.Tales.2015.BRRip.480p.x264.AAC-VYTO\n\n\nGenre: Fantasy, Romance  &lt;a href=&quot;\nhttp://www.imdb.com/title/tt3278330/&quot; rel=&quot;nofollow&quot; target=&quot;_NEW&quot;&gt;\nhttp://www.imdb.com/title/tt3278330/&lt;/a&gt;\n\n\nGeneral\nFormat                         : MPEG-4\nFile size                      : 477 MiB\nDuration                       : 2h 13mn\nOverall bit rate               : 498 Kbps\n\nVideo\nFormat                         : AVC\nBit rate                       : 463 Kbps\nWidth                          : 720 pixels\nHeight                         : 304 pixels\nDisplay aspect ratio           : 2.35:1\nFrame rate mode                : Constant\nFrame rate                     : 24.000 fps\nBit depth                      : 8 bits\nStream size                    : 443 MiB (93%)\nWriting library                : x264 core 148 r2597\n\nAudio\nFormat                         : AAC\nBit rate mode                  : Variable\nBit rate                       : 32.0 Kbps\nChannel(s)                     : 2 channels\nChannel positions              : Front: L R \nSampling rate                  : 48.0 KHz\nStream size                    : 30.6 MiB (6%)\nLanguage                       : English\n\nSubtitle                       : Yes (English)\nSource                     \t   : 720p.BluRay.x264.DTS\n\nScreenshots:\n &lt;a href=&quot;\nhttp://ititli.com/4m&quot; rel=&quot;nofollow&quot; target=&quot;_NEW&quot;&gt;\nhttp://ititli.com/4m&lt;/a&gt; &lt;a href=&quot;\nhttp://ititli.com/4x&quot; rel=&quot;nofollow&quot; target=&quot;_NEW&quot;&gt;\nhttp://ititli.com/4x&lt;/a&gt; &lt;a href=&quot;\nhttp://ititli.com/47&quot; rel=&quot;nofollow&quot; target=&quot;_NEW&quot;&gt;\nhttp://ititli.com/47&lt;/a&gt; &lt;a href=&quot;\nhttp://ititli.com/4C&quot; rel=&quot;nofollow&quot; target=&quot;_NEW&quot;&gt;\nhttp://ititli.com/4C&lt;/a&gt; &lt;a href=&quot;\nhttp://ititli.com/4F&quot; rel=&quot;nofollow&quot; target=&quot;_NEW&quot;&gt;\nhttp://ititli.com/4F&lt;/a&gt; &lt;a href=&quot;\nhttp://ititli.com/4J&quot; rel=&quot;nofollow&quot; target=&quot;_NEW&quot;&gt;\nhttp://ititli.com/4J&lt;/a&gt; &lt;a href=&quot;\nhttp://ititli.com/45&quot; rel=&quot;nofollow&quot; target=&quot;_NEW&quot;&gt;\nhttp://ititli.com/45&lt;/a&gt; &lt;a href=&quot;\nhttp://ititli.com/4B&quot; rel=&quot;nofollow&quot; target=&quot;_NEW&quot;&gt;\nhttp://ititli.com/4B&lt;/a&gt; &lt;a href=&quot;\nhttp://ititli.com/4N&quot; rel=&quot;nofollow&quot; target=&quot;_NEW&quot;&gt;\nhttp://ititli.com/4N&lt;/a&gt; &lt;a href=&quot;\nhttp://ititli.com/4P&quot; rel=&quot;nofollow&quot; target=&quot;_NEW&quot;&gt;\nhttp://ititli.com/4P&lt;/a&gt; &lt;a href=&quot;\nhttp://ititli.com/4f&quot; rel=&quot;nofollow&quot; target=&quot;_NEW&quot;&gt;\nhttp://ititli.com/4f&lt;/a&gt; &lt;a href=&quot;\nhttp://ititli.com/4u&quot; rel=&quot;nofollow&quot; target=&quot;_NEW&quot;&gt;\nhttp://ititli.com/4u&lt;/a&gt;\n\n----------------------------------------------------------------------------------------------------\n\n\nEncoder Notes: Looking For Early Access To Anything You Can Provide DVDScr, R5, DVDR, BluRay, Direct\nAudio, Music Releases and Seedboxes. If You Got anything to offer please contact us.\n\nSupport us by donating BC - 1FgwdzPsd1y25Gea8wP1qni35uGCtmkRCD","torrent":{"xt":"urn:btih:08307e0a6d4f1aa558f3186adb381405808a081e","amp;dn":"Tale.of.Tales.2015.BRRip.480p.x264.AAC-VYTO+%5BP2PDL%5D","amp;tr":["udp%3A%2F%2Ftracker.openbittorrent.com%3A80","udp%3A%2F%2Fopen.demonii.com%3A1337","udp%3A%2F%2Ftracker.coppersurfer.tk%3A6969","udp%3A%2F%2Fexodus.desync.com%3A6969"],"infoHash":"08307e0a6d4f1aa558f3186adb381405808a081e","infoHashBuffer":{"type":"Buffer","data":[8,48,126,10,109,79,26,165,88,243,24,106,219,56,20,5,128,138,8,30]},"announce":[],"urlList":[]}}